<mxfile host="app.diagrams.net" agent="Mozilla/5.0 (Windows NT 10.0; Win64; x64) AppleWebKit/537.36 (KHTML, like Gecko) Chrome/138.0.0.0 Safari/537.36" version="28.0.5" pages="2">
  <diagram name="As-is" id="VeXU3jU1dutu1024J9ar">
    <mxGraphModel dx="1412" dy="737" grid="1" gridSize="10" guides="1" tooltips="1" connect="1" arrows="1" fold="1" page="1" pageScale="1" pageWidth="850" pageHeight="1100" math="0" shadow="0">
      <root>
        <mxCell id="0" />
        <mxCell id="1" parent="0" />
        <mxCell id="VeNAugfaSecMVMktZQ29-8" value="" style="edgeStyle=orthogonalEdgeStyle;rounded=0;orthogonalLoop=1;jettySize=auto;html=1;strokeWidth=5;" edge="1" parent="1" source="VeNAugfaSecMVMktZQ29-1" target="VeNAugfaSecMVMktZQ29-2">
          <mxGeometry relative="1" as="geometry" />
        </mxCell>
        <mxCell id="VeNAugfaSecMVMktZQ29-14" value="" style="edgeStyle=orthogonalEdgeStyle;rounded=0;orthogonalLoop=1;jettySize=auto;html=1;strokeWidth=5;" edge="1" parent="1" source="VeNAugfaSecMVMktZQ29-1" target="VeNAugfaSecMVMktZQ29-13">
          <mxGeometry relative="1" as="geometry" />
        </mxCell>
        <mxCell id="VeNAugfaSecMVMktZQ29-1" value="&lt;br&gt;&lt;div&gt;&lt;br&gt;&lt;/div&gt;" style="shape=mxgraph.cisco.switches.layer_3_switch;sketch=0;html=1;pointerEvents=1;dashed=0;fillColor=#036897;strokeColor=#ffffff;strokeWidth=2;verticalLabelPosition=bottom;verticalAlign=top;align=center;outlineConnect=0;" vertex="1" parent="1">
          <mxGeometry x="386" y="280" width="80" height="80" as="geometry" />
        </mxCell>
        <mxCell id="VeNAugfaSecMVMktZQ29-2" value="" style="shape=mxgraph.cisco.security.router_firewall;sketch=0;html=1;pointerEvents=1;dashed=0;fillColor=#036897;strokeColor=#ffffff;strokeWidth=2;verticalLabelPosition=bottom;verticalAlign=top;align=center;outlineConnect=0;" vertex="1" parent="1">
          <mxGeometry x="387.00000000000006" y="130" width="78" height="62" as="geometry" />
        </mxCell>
        <mxCell id="VeNAugfaSecMVMktZQ29-6" value="" style="edgeStyle=orthogonalEdgeStyle;rounded=0;orthogonalLoop=1;jettySize=auto;html=1;entryX=1;entryY=0.5;entryDx=0;entryDy=0;entryPerimeter=0;strokeWidth=10;" edge="1" parent="1" source="VeNAugfaSecMVMktZQ29-3" target="VeNAugfaSecMVMktZQ29-4">
          <mxGeometry relative="1" as="geometry">
            <mxPoint x="618.5" y="461" as="targetPoint" />
          </mxGeometry>
        </mxCell>
        <mxCell id="VeNAugfaSecMVMktZQ29-3" value="" style="shape=mxgraph.cisco.servers.fileserver;sketch=0;html=1;pointerEvents=1;dashed=0;fillColor=#036897;strokeColor=#ffffff;strokeWidth=2;verticalLabelPosition=bottom;verticalAlign=top;align=center;outlineConnect=0;" vertex="1" parent="1">
          <mxGeometry x="680" y="411" width="80" height="100" as="geometry" />
        </mxCell>
        <mxCell id="VeNAugfaSecMVMktZQ29-7" value="" style="edgeStyle=orthogonalEdgeStyle;rounded=0;orthogonalLoop=1;jettySize=auto;html=1;strokeWidth=10;" edge="1" parent="1" source="VeNAugfaSecMVMktZQ29-4" target="VeNAugfaSecMVMktZQ29-1">
          <mxGeometry relative="1" as="geometry" />
        </mxCell>
        <mxCell id="VeNAugfaSecMVMktZQ29-10" value="" style="edgeStyle=orthogonalEdgeStyle;rounded=0;orthogonalLoop=1;jettySize=auto;html=1;strokeWidth=5;" edge="1" parent="1" source="VeNAugfaSecMVMktZQ29-4">
          <mxGeometry relative="1" as="geometry">
            <mxPoint x="305" y="461" as="targetPoint" />
          </mxGeometry>
        </mxCell>
        <mxCell id="VeNAugfaSecMVMktZQ29-4" value="SPINE" style="shape=mxgraph.cisco.switches.layer_3_switch;sketch=0;html=1;pointerEvents=1;dashed=0;fillColor=#036897;strokeColor=#ffffff;strokeWidth=2;verticalLabelPosition=bottom;verticalAlign=top;align=center;outlineConnect=0;" vertex="1" parent="1">
          <mxGeometry x="385" y="421" width="80" height="80" as="geometry" />
        </mxCell>
        <mxCell id="VeNAugfaSecMVMktZQ29-11" value="Extrahop" style="ellipse;shape=cloud;whiteSpace=wrap;html=1;" vertex="1" parent="1">
          <mxGeometry x="190" y="421" width="131" height="80" as="geometry" />
        </mxCell>
        <mxCell id="VeNAugfaSecMVMktZQ29-12" value="Core" style="text;html=1;align=center;verticalAlign=middle;whiteSpace=wrap;rounded=0;" vertex="1" parent="1">
          <mxGeometry x="490" y="305" width="60" height="30" as="geometry" />
        </mxCell>
        <mxCell id="VeNAugfaSecMVMktZQ29-13" value="&lt;div&gt;&lt;span style=&quot;background-color: transparent; color: light-dark(rgb(0, 0, 0), rgb(255, 255, 255));&quot;&gt;Access Network&lt;/span&gt;&lt;/div&gt;" style="ellipse;shape=cloud;whiteSpace=wrap;html=1;verticalAlign=middle;fillColor=default;strokeColor=default;sketch=0;pointerEvents=1;dashed=0;strokeWidth=2;align=center;fontFamily=Helvetica;fontSize=12;fontColor=default;" vertex="1" parent="1">
          <mxGeometry x="206" y="280" width="120" height="80" as="geometry" />
        </mxCell>
        <mxCell id="VeNAugfaSecMVMktZQ29-15" value="FW-03" style="text;html=1;align=center;verticalAlign=middle;resizable=0;points=[];autosize=1;strokeColor=none;fillColor=none;" vertex="1" parent="1">
          <mxGeometry x="470" y="148" width="60" height="30" as="geometry" />
        </mxCell>
      </root>
    </mxGraphModel>
  </diagram>
  <diagram name="Delta" id="qekRei_4K1NcP5LKjxVq">
    <mxGraphModel dx="1412" dy="737" grid="1" gridSize="10" guides="1" tooltips="1" connect="1" arrows="1" fold="1" page="1" pageScale="1" pageWidth="850" pageHeight="1100" math="0" shadow="0">
      <root>
        <mxCell id="bCw3NAEoAghIJWvo7MHd-0" />
        <mxCell id="bCw3NAEoAghIJWvo7MHd-1" parent="bCw3NAEoAghIJWvo7MHd-0" />
        <mxCell id="FlHhvRjLbA5CgfnBHr5B-24" value="" style="edgeStyle=orthogonalEdgeStyle;rounded=0;orthogonalLoop=1;jettySize=auto;html=1;entryX=0.5;entryY=1;entryDx=0;entryDy=0;entryPerimeter=0;strokeWidth=10;exitX=0.5;exitY=0;exitDx=0;exitDy=0;exitPerimeter=0;" edge="1" parent="bCw3NAEoAghIJWvo7MHd-1">
          <mxGeometry relative="1" as="geometry">
            <mxPoint x="220.5" y="700" as="sourcePoint" />
            <mxPoint x="220.5" y="500" as="targetPoint" />
          </mxGeometry>
        </mxCell>
        <mxCell id="bCw3NAEoAghIJWvo7MHd-3" value="" style="edgeStyle=orthogonalEdgeStyle;rounded=0;orthogonalLoop=1;jettySize=auto;html=1;strokeWidth=5;entryX=0.875;entryY=0.5;entryDx=0;entryDy=0;entryPerimeter=0;" edge="1" parent="bCw3NAEoAghIJWvo7MHd-1" source="bCw3NAEoAghIJWvo7MHd-4" target="bCw3NAEoAghIJWvo7MHd-13">
          <mxGeometry relative="1" as="geometry">
            <mxPoint x="145" y="460" as="targetPoint" />
          </mxGeometry>
        </mxCell>
        <mxCell id="bCw3NAEoAghIJWvo7MHd-4" value="&lt;br&gt;&lt;div&gt;&lt;br&gt;&lt;/div&gt;" style="shape=mxgraph.cisco.switches.layer_3_switch;sketch=0;html=1;pointerEvents=1;dashed=0;fillColor=#036897;strokeColor=#ffffff;strokeWidth=2;verticalLabelPosition=bottom;verticalAlign=top;align=center;outlineConnect=0;" vertex="1" parent="bCw3NAEoAghIJWvo7MHd-1">
          <mxGeometry x="181" y="420" width="80" height="80" as="geometry" />
        </mxCell>
        <mxCell id="bCw3NAEoAghIJWvo7MHd-5" value="" style="shape=mxgraph.cisco.security.router_firewall;sketch=0;html=1;pointerEvents=1;dashed=0;fillColor=#036897;strokeColor=#ffffff;strokeWidth=2;verticalLabelPosition=bottom;verticalAlign=top;align=center;outlineConnect=0;" vertex="1" parent="bCw3NAEoAghIJWvo7MHd-1">
          <mxGeometry x="210.00000000000006" y="120" width="78" height="62" as="geometry" />
        </mxCell>
        <mxCell id="bCw3NAEoAghIJWvo7MHd-6" value="" style="edgeStyle=orthogonalEdgeStyle;rounded=0;orthogonalLoop=1;jettySize=auto;html=1;entryX=0.5;entryY=1;entryDx=0;entryDy=0;entryPerimeter=0;strokeWidth=10;exitX=0.5;exitY=0;exitDx=0;exitDy=0;exitPerimeter=0;" edge="1" parent="bCw3NAEoAghIJWvo7MHd-1" source="bCw3NAEoAghIJWvo7MHd-7" target="bCw3NAEoAghIJWvo7MHd-10">
          <mxGeometry relative="1" as="geometry">
            <mxPoint x="414.5" y="760" as="targetPoint" />
          </mxGeometry>
        </mxCell>
        <mxCell id="bCw3NAEoAghIJWvo7MHd-7" value="" style="shape=mxgraph.cisco.servers.fileserver;sketch=0;html=1;pointerEvents=1;dashed=0;fillColor=#036897;strokeColor=#ffffff;strokeWidth=2;verticalLabelPosition=bottom;verticalAlign=top;align=center;outlineConnect=0;" vertex="1" parent="bCw3NAEoAghIJWvo7MHd-1">
          <mxGeometry x="185" y="950" width="70" height="100" as="geometry" />
        </mxCell>
        <mxCell id="bCw3NAEoAghIJWvo7MHd-10" value="" style="shape=mxgraph.cisco.switches.layer_3_switch;sketch=0;html=1;pointerEvents=1;dashed=0;fillColor=#036897;strokeColor=#ffffff;strokeWidth=2;verticalLabelPosition=bottom;verticalAlign=top;align=center;outlineConnect=0;" vertex="1" parent="bCw3NAEoAghIJWvo7MHd-1">
          <mxGeometry x="180" y="670" width="80" height="80" as="geometry" />
        </mxCell>
        <mxCell id="bCw3NAEoAghIJWvo7MHd-12" value="Core" style="text;html=1;align=center;verticalAlign=middle;whiteSpace=wrap;rounded=0;" vertex="1" parent="bCw3NAEoAghIJWvo7MHd-1">
          <mxGeometry x="185" y="445" width="60" height="30" as="geometry" />
        </mxCell>
        <mxCell id="bCw3NAEoAghIJWvo7MHd-13" value="&lt;div&gt;&lt;span style=&quot;background-color: transparent; color: light-dark(rgb(0, 0, 0), rgb(255, 255, 255));&quot;&gt;Access Network&lt;/span&gt;&lt;/div&gt;" style="ellipse;shape=cloud;whiteSpace=wrap;html=1;verticalAlign=middle;fillColor=default;strokeColor=default;sketch=0;pointerEvents=1;dashed=0;strokeWidth=2;align=center;fontFamily=Helvetica;fontSize=12;fontColor=default;" vertex="1" parent="bCw3NAEoAghIJWvo7MHd-1">
          <mxGeometry x="20" y="420" width="120" height="80" as="geometry" />
        </mxCell>
        <mxCell id="bCw3NAEoAghIJWvo7MHd-14" value="FW-03" style="text;html=1;align=center;verticalAlign=middle;resizable=0;points=[];autosize=1;strokeColor=none;fillColor=none;" vertex="1" parent="bCw3NAEoAghIJWvo7MHd-1">
          <mxGeometry x="140" y="136" width="60" height="30" as="geometry" />
        </mxCell>
        <mxCell id="B1uGew3ZlreICwvSu2cl-13" value="" style="endArrow=classic;html=1;rounded=0;exitX=0.88;exitY=0.91;exitDx=0;exitDy=0;exitPerimeter=0;strokeWidth=5;entryX=0;entryY=0.5;entryDx=0;entryDy=0;" edge="1" parent="bCw3NAEoAghIJWvo7MHd-1" source="bCw3NAEoAghIJWvo7MHd-5" target="FlHhvRjLbA5CgfnBHr5B-7">
          <mxGeometry width="50" height="50" relative="1" as="geometry">
            <mxPoint x="435" y="270" as="sourcePoint" />
            <mxPoint x="395" y="191.20238403731537" as="targetPoint" />
          </mxGeometry>
        </mxCell>
        <mxCell id="B1uGew3ZlreICwvSu2cl-14" value="L2 Traffic in data networks not spanned" style="text;html=1;align=center;verticalAlign=middle;whiteSpace=wrap;rounded=0;" vertex="1" parent="bCw3NAEoAghIJWvo7MHd-1">
          <mxGeometry y="360" width="170" height="70" as="geometry" />
        </mxCell>
        <mxCell id="FlHhvRjLbA5CgfnBHr5B-2" value="Spine" style="text;html=1;align=center;verticalAlign=middle;whiteSpace=wrap;rounded=0;" vertex="1" parent="bCw3NAEoAghIJWvo7MHd-1">
          <mxGeometry x="185" y="695" width="60" height="30" as="geometry" />
        </mxCell>
        <mxCell id="FlHhvRjLbA5CgfnBHr5B-3" value="Extrahop" style="swimlane;whiteSpace=wrap;html=1;" vertex="1" parent="bCw3NAEoAghIJWvo7MHd-1">
          <mxGeometry x="570" y="120" width="400" height="510" as="geometry" />
        </mxCell>
        <mxCell id="FlHhvRjLbA5CgfnBHr5B-4" value="NIC 1" style="rounded=0;whiteSpace=wrap;html=1;" vertex="1" parent="FlHhvRjLbA5CgfnBHr5B-3">
          <mxGeometry y="32" width="200" height="30" as="geometry" />
        </mxCell>
        <mxCell id="FlHhvRjLbA5CgfnBHr5B-5" value="NIC 2" style="rounded=0;whiteSpace=wrap;html=1;" vertex="1" parent="FlHhvRjLbA5CgfnBHr5B-3">
          <mxGeometry y="62" width="200" height="30" as="geometry" />
        </mxCell>
        <mxCell id="FlHhvRjLbA5CgfnBHr5B-6" value="NIC 3" style="rounded=0;whiteSpace=wrap;html=1;" vertex="1" parent="FlHhvRjLbA5CgfnBHr5B-3">
          <mxGeometry y="92" width="200" height="30" as="geometry" />
        </mxCell>
        <mxCell id="FlHhvRjLbA5CgfnBHr5B-7" value="NIC 4" style="rounded=0;whiteSpace=wrap;html=1;" vertex="1" parent="FlHhvRjLbA5CgfnBHr5B-3">
          <mxGeometry y="122" width="200" height="30" as="geometry" />
        </mxCell>
        <mxCell id="FlHhvRjLbA5CgfnBHr5B-8" value="NIC 5" style="rounded=0;whiteSpace=wrap;html=1;" vertex="1" parent="FlHhvRjLbA5CgfnBHr5B-3">
          <mxGeometry y="152" width="200" height="30" as="geometry" />
        </mxCell>
        <mxCell id="FlHhvRjLbA5CgfnBHr5B-9" value="NIC 7" style="rounded=0;whiteSpace=wrap;html=1;" vertex="1" parent="FlHhvRjLbA5CgfnBHr5B-3">
          <mxGeometry y="210" width="200" height="30" as="geometry" />
        </mxCell>
        <mxCell id="FlHhvRjLbA5CgfnBHr5B-10" value="NIC 8" style="rounded=0;whiteSpace=wrap;html=1;" vertex="1" parent="FlHhvRjLbA5CgfnBHr5B-3">
          <mxGeometry y="240" width="200" height="30" as="geometry" />
        </mxCell>
        <mxCell id="FlHhvRjLbA5CgfnBHr5B-11" value="NIC 9" style="rounded=0;whiteSpace=wrap;html=1;" vertex="1" parent="FlHhvRjLbA5CgfnBHr5B-3">
          <mxGeometry y="270" width="200" height="30" as="geometry" />
        </mxCell>
        <mxCell id="FlHhvRjLbA5CgfnBHr5B-12" value="NIC 10" style="rounded=0;whiteSpace=wrap;html=1;" vertex="1" parent="FlHhvRjLbA5CgfnBHr5B-3">
          <mxGeometry y="300" width="200" height="30" as="geometry" />
        </mxCell>
        <mxCell id="FlHhvRjLbA5CgfnBHr5B-13" value="NIC 11" style="rounded=0;whiteSpace=wrap;html=1;" vertex="1" parent="FlHhvRjLbA5CgfnBHr5B-3">
          <mxGeometry y="330" width="200" height="30" as="geometry" />
        </mxCell>
        <mxCell id="FlHhvRjLbA5CgfnBHr5B-14" value="NIC 12" style="rounded=0;whiteSpace=wrap;html=1;" vertex="1" parent="FlHhvRjLbA5CgfnBHr5B-3">
          <mxGeometry y="360" width="200" height="30" as="geometry" />
        </mxCell>
        <mxCell id="FlHhvRjLbA5CgfnBHr5B-15" value="NIC 13" style="rounded=0;whiteSpace=wrap;html=1;" vertex="1" parent="FlHhvRjLbA5CgfnBHr5B-3">
          <mxGeometry y="390" width="200" height="30" as="geometry" />
        </mxCell>
        <mxCell id="FlHhvRjLbA5CgfnBHr5B-16" value="NIC 14" style="rounded=0;whiteSpace=wrap;html=1;" vertex="1" parent="FlHhvRjLbA5CgfnBHr5B-3">
          <mxGeometry y="420" width="200" height="30" as="geometry" />
        </mxCell>
        <mxCell id="FlHhvRjLbA5CgfnBHr5B-17" value="NIC 15" style="rounded=0;whiteSpace=wrap;html=1;" vertex="1" parent="FlHhvRjLbA5CgfnBHr5B-3">
          <mxGeometry y="450" width="200" height="30" as="geometry" />
        </mxCell>
        <mxCell id="FlHhvRjLbA5CgfnBHr5B-18" value="NIC 16" style="rounded=0;whiteSpace=wrap;html=1;" vertex="1" parent="FlHhvRjLbA5CgfnBHr5B-3">
          <mxGeometry y="480" width="200" height="30" as="geometry" />
        </mxCell>
        <mxCell id="FlHhvRjLbA5CgfnBHr5B-46" value="NIC 6" style="rounded=0;whiteSpace=wrap;html=1;" vertex="1" parent="FlHhvRjLbA5CgfnBHr5B-3">
          <mxGeometry y="182" width="200" height="30" as="geometry" />
        </mxCell>
        <mxCell id="FlHhvRjLbA5CgfnBHr5B-47" value="Sensor 1" style="rounded=0;whiteSpace=wrap;html=1;" vertex="1" parent="FlHhvRjLbA5CgfnBHr5B-3">
          <mxGeometry x="200" y="32" width="200" height="238" as="geometry" />
        </mxCell>
        <mxCell id="FlHhvRjLbA5CgfnBHr5B-48" value="Sensor 2" style="rounded=0;whiteSpace=wrap;html=1;" vertex="1" parent="FlHhvRjLbA5CgfnBHr5B-3">
          <mxGeometry x="200" y="270" width="200" height="120" as="geometry" />
        </mxCell>
        <mxCell id="FlHhvRjLbA5CgfnBHr5B-49" value="Sensor 3" style="rounded=0;whiteSpace=wrap;html=1;" vertex="1" parent="FlHhvRjLbA5CgfnBHr5B-3">
          <mxGeometry x="200" y="390" width="200" height="120" as="geometry" />
        </mxCell>
        <mxCell id="FlHhvRjLbA5CgfnBHr5B-19" value="" style="endArrow=classic;html=1;rounded=0;exitX=0.88;exitY=0.91;exitDx=0;exitDy=0;exitPerimeter=0;strokeWidth=5;entryX=0;entryY=0.5;entryDx=0;entryDy=0;" edge="1" parent="bCw3NAEoAghIJWvo7MHd-1" source="bCw3NAEoAghIJWvo7MHd-5" target="FlHhvRjLbA5CgfnBHr5B-6">
          <mxGeometry width="50" height="50" relative="1" as="geometry">
            <mxPoint x="500" y="199" as="sourcePoint" />
            <mxPoint x="729" y="180" as="targetPoint" />
          </mxGeometry>
        </mxCell>
        <mxCell id="FlHhvRjLbA5CgfnBHr5B-22" value="" style="endArrow=classic;html=1;rounded=0;entryX=0;entryY=0.5;entryDx=0;entryDy=0;exitX=1;exitY=0.5;exitDx=0;exitDy=0;exitPerimeter=0;strokeWidth=5;" edge="1" parent="bCw3NAEoAghIJWvo7MHd-1" source="bCw3NAEoAghIJWvo7MHd-4" target="FlHhvRjLbA5CgfnBHr5B-12">
          <mxGeometry width="50" height="50" relative="1" as="geometry">
            <mxPoint x="400" y="330" as="sourcePoint" />
            <mxPoint x="450" y="280" as="targetPoint" />
          </mxGeometry>
        </mxCell>
        <mxCell id="FlHhvRjLbA5CgfnBHr5B-25" value="" style="shape=mxgraph.cisco.directors.localdirector;sketch=0;html=1;pointerEvents=1;dashed=0;fillColor=#036897;strokeColor=#ffffff;strokeWidth=2;verticalLabelPosition=bottom;verticalAlign=top;align=center;outlineConnect=0;" vertex="1" parent="bCw3NAEoAghIJWvo7MHd-1">
          <mxGeometry x="411" y="40" width="78" height="80" as="geometry" />
        </mxCell>
        <mxCell id="FlHhvRjLbA5CgfnBHr5B-26" value="" style="endArrow=classic;html=1;rounded=0;entryX=0;entryY=0.5;entryDx=0;entryDy=0;exitX=1;exitY=0.5;exitDx=0;exitDy=0;exitPerimeter=0;strokeWidth=5;" edge="1" parent="bCw3NAEoAghIJWvo7MHd-1" source="bCw3NAEoAghIJWvo7MHd-4" target="FlHhvRjLbA5CgfnBHr5B-13">
          <mxGeometry width="50" height="50" relative="1" as="geometry">
            <mxPoint x="400" y="307" as="sourcePoint" />
            <mxPoint x="619" y="447" as="targetPoint" />
          </mxGeometry>
        </mxCell>
        <mxCell id="FlHhvRjLbA5CgfnBHr5B-28" value="" style="endArrow=classic;html=1;rounded=0;exitX=0;exitY=0.5;exitDx=0;exitDy=0;exitPerimeter=0;strokeWidth=5;entryX=0.88;entryY=0.09;entryDx=0;entryDy=0;entryPerimeter=0;" edge="1" parent="bCw3NAEoAghIJWvo7MHd-1" source="FlHhvRjLbA5CgfnBHr5B-25" target="bCw3NAEoAghIJWvo7MHd-5">
          <mxGeometry width="50" height="50" relative="1" as="geometry">
            <mxPoint x="450" y="250" as="sourcePoint" />
            <mxPoint x="679" y="261" as="targetPoint" />
          </mxGeometry>
        </mxCell>
        <mxCell id="FlHhvRjLbA5CgfnBHr5B-29" value="" style="endArrow=classic;html=1;rounded=0;exitX=0.95;exitY=0.87;exitDx=0;exitDy=0;exitPerimeter=0;strokeWidth=5;entryX=0;entryY=0.5;entryDx=0;entryDy=0;" edge="1" parent="bCw3NAEoAghIJWvo7MHd-1" source="FlHhvRjLbA5CgfnBHr5B-25" target="FlHhvRjLbA5CgfnBHr5B-5">
          <mxGeometry width="50" height="50" relative="1" as="geometry">
            <mxPoint x="480" y="344" as="sourcePoint" />
            <mxPoint x="570" y="345" as="targetPoint" />
          </mxGeometry>
        </mxCell>
        <mxCell id="FlHhvRjLbA5CgfnBHr5B-30" value="" style="endArrow=classic;html=1;rounded=0;exitX=0.95;exitY=0.87;exitDx=0;exitDy=0;exitPerimeter=0;strokeWidth=5;entryX=0;entryY=0.5;entryDx=0;entryDy=0;" edge="1" parent="bCw3NAEoAghIJWvo7MHd-1" source="FlHhvRjLbA5CgfnBHr5B-25" target="FlHhvRjLbA5CgfnBHr5B-4">
          <mxGeometry width="50" height="50" relative="1" as="geometry">
            <mxPoint x="500" y="323" as="sourcePoint" />
            <mxPoint x="650" y="280" as="targetPoint" />
          </mxGeometry>
        </mxCell>
        <mxCell id="FlHhvRjLbA5CgfnBHr5B-31" value="" style="endArrow=classic;html=1;rounded=0;exitX=1;exitY=0;exitDx=0;exitDy=0;exitPerimeter=0;entryX=0;entryY=0.5;entryDx=0;entryDy=0;strokeWidth=5;" edge="1" parent="bCw3NAEoAghIJWvo7MHd-1" source="bCw3NAEoAghIJWvo7MHd-10" target="FlHhvRjLbA5CgfnBHr5B-14">
          <mxGeometry width="50" height="50" relative="1" as="geometry">
            <mxPoint x="420" y="763" as="sourcePoint" />
            <mxPoint x="640" y="680" as="targetPoint" />
            <Array as="points" />
          </mxGeometry>
        </mxCell>
        <mxCell id="FlHhvRjLbA5CgfnBHr5B-32" value="" style="endArrow=classic;html=1;rounded=0;entryX=0;entryY=0.5;entryDx=0;entryDy=0;exitX=1;exitY=0.5;exitDx=0;exitDy=0;exitPerimeter=0;" edge="1" parent="bCw3NAEoAghIJWvo7MHd-1" source="bCw3NAEoAghIJWvo7MHd-4" target="FlHhvRjLbA5CgfnBHr5B-11">
          <mxGeometry width="50" height="50" relative="1" as="geometry">
            <mxPoint x="400" y="450" as="sourcePoint" />
            <mxPoint x="450" y="400" as="targetPoint" />
          </mxGeometry>
        </mxCell>
        <mxCell id="FlHhvRjLbA5CgfnBHr5B-33" value="" style="endArrow=classic;html=1;rounded=0;entryX=0;entryY=0.5;entryDx=0;entryDy=0;exitX=1;exitY=0.5;exitDx=0;exitDy=0;exitPerimeter=0;" edge="1" parent="bCw3NAEoAghIJWvo7MHd-1" source="bCw3NAEoAghIJWvo7MHd-4" target="FlHhvRjLbA5CgfnBHr5B-3">
          <mxGeometry width="50" height="50" relative="1" as="geometry">
            <mxPoint x="420" y="380" as="sourcePoint" />
            <mxPoint x="639" y="427" as="targetPoint" />
          </mxGeometry>
        </mxCell>
        <mxCell id="FlHhvRjLbA5CgfnBHr5B-34" value="" style="shape=mxgraph.cisco.servers.fileserver;sketch=0;html=1;pointerEvents=1;dashed=0;fillColor=#036897;strokeColor=#ffffff;strokeWidth=2;verticalLabelPosition=bottom;verticalAlign=top;align=center;outlineConnect=0;" vertex="1" parent="bCw3NAEoAghIJWvo7MHd-1">
          <mxGeometry x="271" y="950" width="69" height="100" as="geometry" />
        </mxCell>
        <mxCell id="FlHhvRjLbA5CgfnBHr5B-35" value="iSCSI" style="text;html=1;align=center;verticalAlign=middle;resizable=0;points=[];autosize=1;strokeColor=none;fillColor=none;" vertex="1" parent="bCw3NAEoAghIJWvo7MHd-1">
          <mxGeometry x="274" y="1000" width="50" height="30" as="geometry" />
        </mxCell>
        <mxCell id="FlHhvRjLbA5CgfnBHr5B-36" value="F5" style="text;html=1;align=center;verticalAlign=middle;resizable=0;points=[];autosize=1;strokeColor=none;fillColor=none;" vertex="1" parent="bCw3NAEoAghIJWvo7MHd-1">
          <mxGeometry x="410" y="51" width="40" height="30" as="geometry" />
        </mxCell>
        <mxCell id="FlHhvRjLbA5CgfnBHr5B-37" value="" style="endArrow=classic;html=1;rounded=0;exitX=1;exitY=0.5;exitDx=0;exitDy=0;exitPerimeter=0;entryX=0;entryY=0.25;entryDx=0;entryDy=0;strokeWidth=5;" edge="1" parent="bCw3NAEoAghIJWvo7MHd-1" source="FlHhvRjLbA5CgfnBHr5B-34" target="FlHhvRjLbA5CgfnBHr5B-15">
          <mxGeometry width="50" height="50" relative="1" as="geometry">
            <mxPoint x="500" y="863" as="sourcePoint" />
            <mxPoint x="720" y="690" as="targetPoint" />
            <Array as="points" />
          </mxGeometry>
        </mxCell>
        <mxCell id="FlHhvRjLbA5CgfnBHr5B-38" value="" style="endArrow=classic;html=1;rounded=0;exitX=1;exitY=0.5;exitDx=0;exitDy=0;exitPerimeter=0;entryX=0;entryY=0.25;entryDx=0;entryDy=0;strokeWidth=5;" edge="1" parent="bCw3NAEoAghIJWvo7MHd-1" source="FlHhvRjLbA5CgfnBHr5B-34" target="FlHhvRjLbA5CgfnBHr5B-16">
          <mxGeometry width="50" height="50" relative="1" as="geometry">
            <mxPoint x="590" y="668" as="sourcePoint" />
            <mxPoint x="720" y="640" as="targetPoint" />
            <Array as="points" />
          </mxGeometry>
        </mxCell>
        <mxCell id="FlHhvRjLbA5CgfnBHr5B-39" value="" style="shape=mxgraph.cisco.switches.layer_3_switch;sketch=0;html=1;pointerEvents=1;dashed=0;fillColor=#036897;strokeColor=#ffffff;strokeWidth=2;verticalLabelPosition=bottom;verticalAlign=top;align=center;outlineConnect=0;" vertex="1" parent="bCw3NAEoAghIJWvo7MHd-1">
          <mxGeometry x="244" y="212" width="80" height="80" as="geometry" />
        </mxCell>
        <mxCell id="FlHhvRjLbA5CgfnBHr5B-40" value="Servers" style="text;html=1;align=center;verticalAlign=middle;resizable=0;points=[];autosize=1;strokeColor=none;fillColor=none;" vertex="1" parent="bCw3NAEoAghIJWvo7MHd-1">
          <mxGeometry x="185" y="1000" width="60" height="30" as="geometry" />
        </mxCell>
        <mxCell id="FlHhvRjLbA5CgfnBHr5B-41" value="" style="endArrow=classic;html=1;rounded=0;exitX=0.5;exitY=0;exitDx=0;exitDy=0;exitPerimeter=0;strokeWidth=5;entryX=0.12;entryY=0.91;entryDx=0;entryDy=0;entryPerimeter=0;" edge="1" parent="bCw3NAEoAghIJWvo7MHd-1" source="bCw3NAEoAghIJWvo7MHd-4" target="bCw3NAEoAghIJWvo7MHd-5">
          <mxGeometry width="50" height="50" relative="1" as="geometry">
            <mxPoint x="418" y="421" as="sourcePoint" />
            <mxPoint x="400" y="300" as="targetPoint" />
          </mxGeometry>
        </mxCell>
        <mxCell id="FlHhvRjLbA5CgfnBHr5B-42" value="" style="endArrow=classic;html=1;rounded=0;entryX=0.5;entryY=1;entryDx=0;entryDy=0;entryPerimeter=0;exitX=0.5;exitY=0;exitDx=0;exitDy=0;exitPerimeter=0;strokeWidth=5;" edge="1" parent="bCw3NAEoAghIJWvo7MHd-1" source="FlHhvRjLbA5CgfnBHr5B-39" target="bCw3NAEoAghIJWvo7MHd-5">
          <mxGeometry width="50" height="50" relative="1" as="geometry">
            <mxPoint x="450" y="210" as="sourcePoint" />
            <mxPoint x="400" y="260" as="targetPoint" />
          </mxGeometry>
        </mxCell>
        <mxCell id="FlHhvRjLbA5CgfnBHr5B-43" value="DMZ" style="text;html=1;align=center;verticalAlign=middle;resizable=0;points=[];autosize=1;strokeColor=none;fillColor=none;" vertex="1" parent="bCw3NAEoAghIJWvo7MHd-1">
          <mxGeometry x="255" y="240" width="50" height="30" as="geometry" />
        </mxCell>
        <mxCell id="FlHhvRjLbA5CgfnBHr5B-44" value="" style="endArrow=classic;html=1;rounded=0;entryX=0;entryY=0.5;entryDx=0;entryDy=0;exitX=1;exitY=0.5;exitDx=0;exitDy=0;exitPerimeter=0;strokeWidth=5;" edge="1" parent="bCw3NAEoAghIJWvo7MHd-1" source="FlHhvRjLbA5CgfnBHr5B-39" target="FlHhvRjLbA5CgfnBHr5B-8">
          <mxGeometry width="50" height="50" relative="1" as="geometry">
            <mxPoint x="561" y="160" as="sourcePoint" />
            <mxPoint x="490" y="196" as="targetPoint" />
          </mxGeometry>
        </mxCell>
        <mxCell id="FlHhvRjLbA5CgfnBHr5B-45" value="" style="endArrow=classic;html=1;rounded=0;entryX=0;entryY=0.5;entryDx=0;entryDy=0;exitX=1;exitY=0.5;exitDx=0;exitDy=0;exitPerimeter=0;strokeWidth=5;" edge="1" parent="bCw3NAEoAghIJWvo7MHd-1" source="FlHhvRjLbA5CgfnBHr5B-39" target="FlHhvRjLbA5CgfnBHr5B-46">
          <mxGeometry width="50" height="50" relative="1" as="geometry">
            <mxPoint x="480" y="180" as="sourcePoint" />
            <mxPoint x="624" y="262" as="targetPoint" />
          </mxGeometry>
        </mxCell>
        <mxCell id="FlHhvRjLbA5CgfnBHr5B-50" value="" style="shape=mxgraph.cisco.switches.layer_3_switch;sketch=0;html=1;pointerEvents=1;dashed=0;fillColor=#036897;strokeColor=#ffffff;strokeWidth=2;verticalLabelPosition=bottom;verticalAlign=top;align=center;outlineConnect=0;" vertex="1" parent="bCw3NAEoAghIJWvo7MHd-1">
          <mxGeometry x="244" y="310" width="80" height="80" as="geometry" />
        </mxCell>
        <mxCell id="FlHhvRjLbA5CgfnBHr5B-51" value="Telco" style="text;html=1;align=center;verticalAlign=middle;resizable=0;points=[];autosize=1;strokeColor=none;fillColor=none;" vertex="1" parent="bCw3NAEoAghIJWvo7MHd-1">
          <mxGeometry x="255" y="340" width="50" height="30" as="geometry" />
        </mxCell>
        <mxCell id="FlHhvRjLbA5CgfnBHr5B-52" value="" style="endArrow=classic;html=1;rounded=0;entryX=0;entryY=0.5;entryDx=0;entryDy=0;exitX=1;exitY=0.5;exitDx=0;exitDy=0;exitPerimeter=0;strokeWidth=1;" edge="1" parent="bCw3NAEoAghIJWvo7MHd-1" source="FlHhvRjLbA5CgfnBHr5B-50" target="FlHhvRjLbA5CgfnBHr5B-9">
          <mxGeometry width="50" height="50" relative="1" as="geometry">
            <mxPoint x="470" y="340" as="sourcePoint" />
            <mxPoint x="716" y="405" as="targetPoint" />
          </mxGeometry>
        </mxCell>
      </root>
    </mxGraphModel>
  </diagram>
</mxfile>
